<svg width="16" height="16" viewBox="0 0 16 16" fill="none" xmlns="http://www.w3.org/2000/svg">
<path fill-rule="evenodd" clip-rule="evenodd" d="M10.5665 1.66716C10.9872 1.66716 11.4072 1.72649 11.8065 1.86049C14.2672 2.66049 15.1539 5.36049 14.4132 7.72049C13.9932 8.92649 13.3065 10.0272 12.4072 10.9265C11.1199 12.1732 9.7072 13.2798 8.18654 14.2332L8.01987 14.3338L7.84654 14.2265C6.32054 13.2798 4.89987 12.1732 3.60054 10.9198C2.7072 10.0205 2.01987 8.92649 1.5932 7.72049C0.839869 5.36049 1.72654 2.66049 4.21387 1.84649C4.4072 1.77983 4.60654 1.73316 4.80654 1.70716H4.88654C5.07387 1.67983 5.25987 1.66716 5.44654 1.66716H5.51987C5.93987 1.67983 6.34654 1.75316 6.74054 1.88716H6.77987C6.80654 1.89983 6.82654 1.91383 6.83987 1.92649C6.9872 1.97383 7.12654 2.02716 7.25987 2.10049L7.5132 2.21383C7.57442 2.24647 7.64313 2.29636 7.70251 2.33947C7.74013 2.36679 7.77401 2.39139 7.79987 2.40716C7.81075 2.41358 7.82181 2.42003 7.83295 2.42654C7.89012 2.45991 7.94966 2.49467 7.99987 2.53316C8.74054 1.96716 9.63987 1.66049 10.5665 1.66716ZM12.3399 6.46716C12.6132 6.45983 12.8465 6.24049 12.8665 5.95983V5.88049C12.8865 4.94649 12.3205 4.10049 11.4599 3.77383C11.1865 3.67983 10.8865 3.82716 10.7865 4.10716C10.6932 4.38716 10.8399 4.69383 11.1199 4.79316C11.5472 4.95316 11.8332 5.37383 11.8332 5.83983V5.86049C11.8205 6.01316 11.8665 6.16049 11.9599 6.27383C12.0532 6.38716 12.1932 6.45316 12.3399 6.46716Z" fill="#0CAFC6"/>
</svg>
