<svg width="24" height="24" viewBox="0 0 24 24" fill="none" xmlns="http://www.w3.org/2000/svg">
<path fill-rule="evenodd" clip-rule="evenodd" d="M20.3394 7.65923C21.0094 8.17823 21.4204 8.94923 21.4904 9.78823L21.5004 9.98923V18.0982C21.5004 20.1882 19.8494 21.8882 17.7804 21.9982H15.7904C14.8394 21.9792 14.0704 21.2392 14.0004 20.3092L13.9904 20.1682V17.3092C13.9904 16.9982 13.7594 16.7392 13.4504 16.6882L13.3604 16.6782H10.6894C10.3704 16.6882 10.1104 16.9182 10.0704 17.2182L10.0604 17.3092V20.1592C10.0604 20.2182 10.0494 20.2882 10.0404 20.3382L10.0304 20.3592L10.0194 20.4282C9.90043 21.2792 9.20043 21.9282 8.33043 21.9892L8.20043 21.9982H6.41043C4.32043 21.9982 2.61043 20.3592 2.50043 18.2982V9.98923C2.50943 9.13823 2.88043 8.34823 3.50043 7.79823L9.73043 2.78823C11.0004 1.77923 12.7804 1.73923 14.0894 2.66823L14.2504 2.78823L20.3394 7.65923ZM20.0994 18.2582L20.1104 18.0982V9.99823C20.0994 9.56923 19.9204 9.16823 19.6104 8.86923L19.4804 8.75823L13.3804 3.87823C12.6204 3.26823 11.5404 3.23923 10.7404 3.76823L10.5894 3.87823L4.50943 8.77923C4.16043 9.03823 3.95043 9.42823 3.90043 9.83823L3.88943 9.99823V18.0982C3.88943 19.4282 4.92943 20.5182 6.25043 20.5982H8.20043C8.42043 20.5982 8.61043 20.4492 8.63943 20.2392L8.66043 20.0592L8.67043 20.0082V17.3092C8.67043 16.2392 9.49043 15.3692 10.5404 15.2882H13.3604C14.4294 15.2882 15.2994 16.1092 15.3804 17.1592V20.1682C15.3804 20.3782 15.5304 20.5592 15.7304 20.5982H17.5894C18.9294 20.5982 20.0194 19.5692 20.0994 18.2582Z" fill="#0CAFC6"/>
</svg>
