<svg width="16" height="16" viewBox="0 0 16 16" fill="none" xmlns="http://www.w3.org/2000/svg">
<path fill-rule="evenodd" clip-rule="evenodd" d="M5.39837 8.00002C5.39837 9.42224 6.5626 10.5794 8 10.5794C9.43089 10.5794 10.5951 9.42224 10.5951 8.00002C10.5951 6.57133 9.43089 5.41416 8 5.41416C6.5626 5.41416 5.39837 6.57133 5.39837 8.00002ZM11.8244 4.03073C12.9626 4.90992 13.9317 6.19638 14.6276 7.80608C14.6797 7.92891 14.6797 8.07113 14.6276 8.18749C13.2358 11.4069 10.7577 13.3334 8 13.3334H7.99349C5.24227 13.3334 2.76422 11.4069 1.37235 8.18749C1.32032 8.07113 1.32032 7.92891 1.37235 7.80608C2.76422 4.58669 5.24227 2.66669 7.99349 2.66669H8C9.37886 2.66669 10.6862 3.14507 11.8244 4.03073ZM8.00077 9.6083C8.89183 9.6083 9.62029 8.88425 9.62029 7.9986C9.62029 7.10648 8.89183 6.38244 8.00077 6.38244C7.92273 6.38244 7.84468 6.3889 7.77313 6.40183C7.74712 7.11294 7.16175 7.68183 6.4398 7.68183H6.40728C6.38777 7.78526 6.37476 7.8887 6.37476 7.9986C6.37476 8.88425 7.10321 9.6083 8.00077 9.6083Z" fill="#0CAFC6"/>
</svg>
