<svg width="24" height="24" viewBox="0 0 24 24" fill="none" xmlns="http://www.w3.org/2000/svg">
<path fill-rule="evenodd" clip-rule="evenodd" d="M7.52081 13.1974C6.85981 13.1974 6.32281 12.6604 6.32281 12.0004C6.32281 11.3404 6.85981 10.8024 7.52081 10.8024C8.18181 10.8024 8.71881 11.3404 8.71881 12.0004C8.71881 12.6604 8.18181 13.1974 7.52081 13.1974ZM12.0002 13.1974C11.3392 13.1974 10.8022 12.6604 10.8022 12.0004C10.8022 11.3404 11.3392 10.8024 12.0002 10.8024C12.6612 10.8024 13.1982 11.3404 13.1982 12.0004C13.1982 12.6604 12.6612 13.1974 12.0002 13.1974ZM15.2812 12.0004C15.2812 12.6604 15.8182 13.1974 16.4792 13.1974C17.1402 13.1974 17.6772 12.6604 17.6772 12.0004C17.6772 11.3404 17.1402 10.8024 16.4792 10.8024C15.8182 10.8024 15.2812 11.3404 15.2812 12.0004Z" fill="#2E2E5D"/>
</svg>
