<svg width="24" height="24" viewBox="0 0 24 24" fill="none" xmlns="http://www.w3.org/2000/svg">
<g clip-path="url(#clip0_1422_3153)">
<path d="M23.4264 12.2245C23.4264 11.2413 23.3466 10.5238 23.1741 9.77966H11.9523V14.2176H18.5392C18.4065 15.3205 17.6893 16.9815 16.0957 18.0976L16.0733 18.2462L19.6215 20.9964L19.8673 21.0209C22.1249 18.9347 23.4264 15.8653 23.4264 12.2245Z" fill="#4285F4"/>
<path d="M11.9522 23.9176C15.1793 23.9176 17.8884 22.8545 19.8673 21.0209L16.0956 18.0976C15.0864 18.8018 13.7318 19.2934 11.9522 19.2934C8.79157 19.2934 6.10898 17.2074 5.15271 14.324L5.01254 14.3359L1.32315 17.1927L1.2749 17.3269C3.24036 21.2334 7.27756 23.9176 11.9522 23.9176Z" fill="#34A853"/>
<path d="M5.15268 14.3239C4.90036 13.5798 4.75433 12.7825 4.75433 11.9587C4.75433 11.1348 4.90036 10.3376 5.1394 9.59354L5.13272 9.43506L1.39709 6.53235L1.27487 6.59052C0.464813 8.21161 0 10.032 0 11.9587C0 13.8854 0.464813 15.7057 1.27487 17.3268L5.15268 14.3239Z" fill="#FBBC05"/>
<path d="M11.9522 4.62403C14.1966 4.62403 15.7105 5.59402 16.5737 6.40461L19.9469 3.10928C17.8752 1.1826 15.1793 0 11.9522 0C7.27756 0 3.24036 2.68406 1.2749 6.59057L5.13944 9.59359C6.10898 6.7102 8.79156 4.62403 11.9522 4.62403Z" fill="#EB4335"/>
</g>
<defs>
<clipPath id="clip0_1422_3153">
<rect width="24" height="24" fill="white"/>
</clipPath>
</defs>
</svg>
